<?xml version="1.0" encoding="UTF-8"?>
<svg id="b" data-name="Layer 2" xmlns="http://www.w3.org/2000/svg" width="2113" height="831.71" viewBox="0 0 2113 831.71">
  <g id="c" data-name="Layer 1">
    <g>
      <path d="M617.7,710.77c-1.38-1.65-3.38-2.47-6.02-2.47h-9.24V0h-9.08v800.86c0,1.21.33,2.09.99,2.64.66.55,1.65.82,2.97.82h14.36c2.64,0,4.64-.82,6.02-2.47,1.37-1.65,2.06-4.07,2.06-7.26v-76.39c0-3.3-.69-5.78-2.06-7.43ZM610.69,792.61c0,1.21-.2,2.06-.58,2.55-.39.5-1.02.75-1.9.75h-4.95c-.33,0-.55-.06-.66-.17s-.16-.33-.16-.66v-78.53h5.77c.88,0,1.51.3,1.9.91.38.6.58,1.46.58,2.55v72.6Z"/>
      <path d="M648.222,801.846c-1.377,1.65-3.382,2.475-6.022,2.475h-9.899c-2.75,0-4.841-.825-6.269-2.475-1.431-1.65-2.145-4.014-2.145-7.095v-76.553c0-3.3.686-5.774,2.062-7.424,1.374-1.65,3.49-2.475,6.352-2.475h9.899c2.64,0,4.645.825,6.022,2.475,1.374,1.65,2.062,4.125,2.062,7.424v76.553c0,3.081-.688,5.445-2.062,7.095ZM640.632,795.164c.384-.495.577-1.346.577-2.557v-72.593c0-1.098-.193-1.952-.577-2.558-.387-.603-1.018-.907-1.897-.907h-3.135c-.99,0-1.678.304-2.062.907-.387.606-.577,1.459-.577,2.558v72.593c0,1.211.191,2.062.577,2.557.384.495,1.072.743,2.062.743h3.135c.879,0,1.511-.248,1.897-.743Z"/>
      <path d="M654.408,804.32v-92.557c0-1.209.33-2.088.99-2.64.66-.549,1.65-.825,2.97-.825h13.529v8.249h-7.589c-.33,0-.552.083-.66.248-.111.165-.165.469-.165.907v86.617h-9.074Z"/>
      <path d="M698.54,710.77c-1.38-1.65-3.38-2.47-6.02-2.47h-9.9c-2.86,0-4.98.82-6.35,2.47-1.38,1.65-2.06,4.13-2.06,7.43v76.39c0,3.19.71,5.61,2.14,7.26s3.52,2.47,6.27,2.47h8.91v15.67c0,1.21-.19,2.07-.58,2.56-.39.5-1.02.74-1.9.74H0v8.42h692.52c2.64,0,4.64-.8,6.02-2.39,1.37-1.6,2.06-4.05,2.06-7.35v-103.77c0-3.3-.69-5.78-2.06-7.43ZM685.92,796.07c-.99,0-1.68-.27-2.06-.82-.39-.55-.58-1.43-.58-2.64v-72.6c0-1.21.19-2.09.58-2.64.38-.55,1.07-.82,2.06-.82h3.13c.88,0,1.51.27,1.9.82.39.55.58,1.43.58,2.64v76.06h-5.61Z"/>
      <path d="M728.9,710.77c-1.38-1.65-3.38-2.47-6.02-2.47h-9.9c-2.86,0-4.95.82-6.27,2.47-1.32,1.65-1.98,4.13-1.98,7.43v76.55c0,3.08.68,5.45,2.06,7.1,1.37,1.65,3.44,2.47,6.19,2.47h16.5v-8.41h-13.04c-.99,0-1.68-.25-2.06-.75-.39-.49-.58-1.34-.58-2.55v-28.55h13.04c1.42,0,2.47-.27,3.13-.82.66-.55.99-1.43.99-2.64v-42.4c0-3.3-.69-5.78-2.06-7.43ZM722.05,754.82c0,.23-.08.45-.25.66-.16.23-.36.33-.57.33h-7.43v-35.63c0-1.32.19-2.26.58-2.81.38-.55,1.07-.82,2.06-.82h3.14c.88,0,1.51.27,1.89.82.39.55.58,1.49.58,2.81v34.64Z"/>
      <path d="M755.708,802.093c-1.32,1.485-3.356,2.228-6.104,2.228h-15.344v-8.414h11.549c.99,0,1.732-.219,2.227-.66.495-.438.742-1.155.742-2.145v-27.223c0-.879-.165-1.704-.495-2.475-.33-.769-.825-1.428-1.485-1.98l-9.734-9.074c-.99-.879-1.707-1.815-2.145-2.805-.441-.99-.66-2.199-.66-3.63v-28.542c0-3.078.686-5.362,2.062-6.847,1.374-1.485,3.49-2.227,6.352-2.227h1370.326v8.249H745.974c-.99,0-1.678.276-2.062.825-.387.552-.578,1.32-.578,2.31v23.923c0,1.101.165,2.008.495,2.722.33.717.768,1.402,1.32,2.062l9.899,9.074c.879.881,1.539,1.843,1.98,2.887.438,1.046.66,2.173.66,3.382v31.347c0,3.191-.66,5.527-1.98,7.012Z"/>
    </g>
  </g>
</svg>